<svg width="18" height="18" viewBox="0 0 18 18" fill="none" xmlns="http://www.w3.org/2000/svg">
<g clip-path="url(#clip0)">
<path d="M12.4553 10.6812C14.616 7.63009 13.8934 3.40521 10.8423 1.24502C7.79115 -0.915172 3.56626 -0.193044 1.40607 2.85858C-0.754115 5.90969 -0.0319876 10.1341 3.01963 12.2942C5.19737 13.8361 8.07659 13.9548 10.3736 12.5983L15.3645 17.5592C15.9033 18.1265 16.7999 18.1492 17.3672 17.6103C17.9345 17.072 17.9572 16.1754 17.4188 15.6081C17.4018 15.59 17.3853 15.5735 17.3672 15.5565L12.4553 10.6812ZM6.92656 11.1437C4.51551 11.1442 2.56076 9.19101 2.55921 6.77996C2.55869 4.3689 4.51189 2.41415 6.92346 2.41312C9.33141 2.41209 11.2851 4.36219 11.2898 6.77015C11.2939 9.18171 9.34174 11.1396 6.92966 11.1437C6.92862 11.1437 6.92811 11.1437 6.92656 11.1437Z" fill="#EB5757"/>
</g>
<defs>
<clipPath id="clip0">
<rect width="18" height="18" fill="white"/>
</clipPath>
</defs>
</svg>
